<?xml version="1.0" encoding="iso-8859-1"?>
<!-- Uploaded to: SVG Repo, www.svgrepo.com, Generator: SVG Repo Mixer Tools -->
<svg fill="white" version="1.1" id="Layer_1" xmlns="http://www.w3.org/2000/svg" xmlns:xlink="http://www.w3.org/1999/xlink" 
	 viewBox="0 0 437.804 437.804" xml:space="preserve">
<g>
	<g>
		<g>
			<path d="M437.803,286.553h-52.5v-85h-130v-145h-135v110h-40v120h-35V60.947L10.606,26.25L0,36.857L30.303,67.16v274.394h45.134
				c-6.313,7.418-10.134,17.019-10.134,27.5c0,23.435,19.065,42.5,42.5,42.5s42.5-19.065,42.5-42.5
				c0-10.481-3.822-20.082-10.134-27.5h165.269c-6.313,7.418-10.134,17.019-10.134,27.5c0,23.435,19.065,42.5,42.5,42.5
				s42.5-19.065,42.5-42.5c0-10.481-3.822-20.082-10.134-27.5h45.134v-40h22.5L437.803,286.553L437.803,286.553z M255.303,216.553
				h115v20h-82.5v15h82.5v35h-115V216.553z M175.303,71.553h25v35h-25V71.553z M135.303,71.553h25v50h55v-50h25v95h-105V71.553z
				 M190.303,181.553v35h-45v-35H190.303z M130.303,181.553v50h75v-50h35v105h-145c0,0,0-105,0-105H130.303z M107.803,396.553
				c-15.164,0-27.5-12.337-27.5-27.5c0-15.163,12.336-27.5,27.5-27.5s27.5,12.337,27.5,27.5
				C135.303,384.216,122.967,396.553,107.803,396.553z M337.803,396.553c-15.163,0-27.5-12.337-27.5-27.5
				c0-15.163,12.337-27.5,27.5-27.5c15.163,0,27.5,12.337,27.5,27.5C365.303,384.216,352.966,396.553,337.803,396.553z
				 M400.303,326.553h-355v-25h355V326.553z"/>
			<rect x="97.803" y="361.553" width="20" height="15"/>
			<rect x="327.803" y="361.553" width="20" height="15"/>
		</g>
	</g>
</g>
</svg>